# xmcd
#
# Track frame offsets: 
#        150
#        14880
#        27525
#        43342
#        63290
#        82857
#        98400
#        121255
#        141285
#
# Disc length: 2282 seconds
#
# Revision: 0
# Processed by: cddbd v1.5.2PL0 Copyright (c) Steve Scherf et al.
# Submitted via: ExactAudioCopy v0.95b3
#
DISCID=7508e809
DTITLE=Midnight Blue - The High Dessert Hop and The Rattlesnake Shake
DYEAR=1900
DGENRE=Rock/Blues
TTITLE0=Midnight Mood
TTITLE1=Shantytown
TTITLE2=Hog for You Baby
TTITLE3=PDX Bues
TTITLE4=I've Got My Mojo Workin'
TTITLE5=The High Dessert Hop and The Rattlesnake Shake
TTITLE6=She Caught the Katy
TTITLE7=Drownin' in the Blues
TTITLE8=Midnight Stroll
EXTD=
EXTT0=
EXTT1=
EXTT2=
EXTT3=
EXTT4=
EXTT5=
EXTT6=
EXTT7=
EXTT8=
PLAYORDER=
